<?xml version="1.0" encoding="UTF-8" standalone="no"?>
<svg
   xmlns:dc="http://purl.org/dc/elements/1.1/"
   xmlns:cc="http://creativecommons.org/ns#"
   xmlns:rdf="http://www.w3.org/1999/02/22-rdf-syntax-ns#"
   xmlns:svg="http://www.w3.org/2000/svg"
   xmlns="http://www.w3.org/2000/svg"
   xmlns:sodipodi="http://sodipodi.sourceforge.net/DTD/sodipodi-0.dtd"
   xmlns:inkscape="http://www.inkscape.org/namespaces/inkscape"
   id="SvgjsSvg1006"
   width="500px"
   height="500px"
   version="1.1"
   viewBox="-100 -100 600 600"
   sodipodi:docname="GGfinalSVG_r1.svg"
   inkscape:version="0.92.2 (5c3e80d, 2017-08-06)">
  <metadata
     id="metadata49">
    <rdf:RDF>
      <cc:Work
         rdf:about="">
        <dc:format>image/svg+xml</dc:format>
        <dc:type
           rdf:resource="http://purl.org/dc/dcmitype/StillImage" />
        <dc:title></dc:title>
      </cc:Work>
    </rdf:RDF>
  </metadata>
  <sodipodi:namedview
     pagecolor="#ffffff"
     bordercolor="#666666"
     borderopacity="1"
     objecttolerance="10"
     gridtolerance="10"
     guidetolerance="10"
     inkscape:pageopacity="0"
     inkscape:pageshadow="2"
     inkscape:window-width="1920"
     inkscape:window-height="981"
     id="namedview47"
     showgrid="false"
     inkscape:zoom="1"
     inkscape:cx="367.36116"
     inkscape:cy="237.09396"
     inkscape:window-x="0"
     inkscape:window-y="28"
     inkscape:window-maximized="1"
     inkscape:current-layer="layer2"
     inkscape:measure-start="244.192,358.422"
     inkscape:measure-end="0,0" />
  <defs
     id="SvgjsDefs1007" />
  <!--This is the Background -->
  <!--This is the Border and Frame the Stroke is the border, the fill is inside -->
  <!--This is the "by Lutgarda" text-->
  <g
     inkscape:groupmode="layer"
     id="layer1"
     inkscape:label="Layer 1" />
  <g
     inkscape:groupmode="layer"
     id="layer2"
     inkscape:label="Layer 2">
    <g
       id="g4758">
      <rect
         y="-91.062263"
         x="-91.062233"
         height="582.12445"
         width="582.12445"
         id="rect921"
         style="opacity:1;fill:#848383;fill-opacity:1;stroke:#848383;stroke-width:17.87553406;stroke-miterlimit:4;stroke-dasharray:none;stroke-opacity:1" />
      <g
         id="SvgjsG1009">
        <svg
           id="svg13"
           preserveAspectRatio="none"
           version="1.1"
           y="0"
           x="0"
           height="400"
           width="400">
          <rect
             id="rect9"
             ry="0"
             rx="0"
             y="5"
             x="5"
             height="390"
             width="390"
             style="fill:#848383;fill-opacity:1;fill-rule:evenodd;stroke:#88c24e;stroke-width:10;stroke-opacity:1" />
          <defs
             id="defs11" />
        </svg>
      </g>
      <g
         id="SvgjsG1011">
        <svg
           id="svg31"
           y="68.109375"
           x="115"
           width="170"
           preserveAspectRatio="none"
           version="1.1"
           viewBox="0 0 797 797"
           height="170">
          <g
             id="g28">
            <!--This is the Icon the fill is the stroke of the icon, the sun and whatnot-->
            <svg
               id="svg26"
               height="797"
               width="797"
               xml:space="preserve"
               enable-background="new 0 0 1000 1000"
               viewBox="101.5 101.5 797 797"
               y="0px"
               x="0px"
               version="1.1"
               data-color="1"
               style="fill:#88c24e"><g
                 id="g24"><path
                   id="path16"
                   d="M 867.18,344.883 C 847.109,297.429 818.376,254.813 781.783,218.218 745.188,181.624 702.572,152.892 655.118,132.821 605.981,112.038 553.793,101.5 500,101.5 c -53.793,0 -105.982,10.538 -155.117,31.32 -47.454,20.071 -90.07,48.803 -126.665,85.397 -36.594,36.595 -65.326,79.211 -85.397,126.665 C 112.038,394.018 101.5,446.207 101.5,500 c 0,53.793 10.538,105.981 31.32,155.117 20.071,47.454 48.803,90.07 85.397,126.665 36.595,36.594 79.211,65.326 126.665,85.397 49.136,20.783 101.325,31.321 155.118,31.321 53.793,0 105.981,-10.538 155.117,-31.32 47.454,-20.071 90.07,-48.804 126.665,-85.397 36.594,-36.595 65.326,-79.211 85.397,-126.665 C 887.962,605.981 898.5,553.793 898.5,500 c 0,-53.793 -10.538,-105.982 -31.32,-155.117 z m -72.755,-82.486 c 18.321,22.66 34.087,47.467 46.851,73.982 H 639.587 c -0.091,-1.163 -0.137,-2.331 -0.137,-3.5 0,-24.538 19.963,-44.5 44.5,-44.5 13.68,0 26.405,6.172 34.916,16.934 l 11.116,14.056 6.125,-16.841 c 8.734,-24.014 31.779,-40.148 57.343,-40.148 0.326,-10e-4 0.65,0.013 0.975,0.017 z M 285.5,580.879 c 0,-118.275 96.224,-214.5 214.5,-214.5 55.608,0 106.322,21.291 144.473,56.124 -1.851,1.181 -3.663,2.442 -5.432,3.782 -9.302,7.045 -17.004,16.109 -22.514,26.335 -8.955,-6.872 -20.021,-10.726 -31.639,-10.726 -27.165,0 -49.943,21.214 -51.857,48.295 l -0.756,10.705 h 166.719 c 9.981,24.731 15.506,51.721 15.506,79.984 0,15.073 -1.601,29.774 -4.578,43.976 H 290.062 C 287.088,610.653 285.5,595.95 285.5,580.879 Z m 341.718,-99.984 2.211,-7.429 c 7.637,-25.654 31.676,-43.571 58.46,-43.571 22.021,0 42.412,11.952 53.216,31.192 l 4.814,8.572 8.652,-4.667 c 3.811,-2.055 7.954,-3.097 12.317,-3.097 11.913,0 21.979,8.052 25.043,19 z m -12.533,0 h -59.021 c 5.018,-11.218 16.316,-19 29.226,-19 10.717,0 20.675,5.334 26.639,14.27 z m 234.996,163.959 c -3.074,7.395 -6.376,14.671 -9.897,21.821 -8.432,2.254 -14.418,5.919 -19.923,9.311 -7.722,4.757 -13.82,8.514 -27.219,8.514 -13.399,0 -19.497,-3.757 -27.218,-8.514 -8.738,-5.384 -18.644,-11.486 -37.708,-11.486 -19.064,0 -28.969,6.103 -37.707,11.486 -7.721,4.757 -13.819,8.514 -27.218,8.514 -13.397,0 -19.495,-3.757 -27.216,-8.514 -8.737,-5.384 -18.642,-11.486 -37.705,-11.486 -19.064,0 -28.969,6.103 -37.707,11.486 -7.721,4.757 -13.819,8.514 -27.217,8.514 -13.398,0 -19.496,-3.757 -27.217,-8.514 -8.738,-5.384 -18.643,-11.486 -37.708,-11.486 -19.064,0 -28.968,6.103 -37.707,11.486 -7.72,4.757 -13.818,8.514 -27.215,8.514 -13.397,0 -19.496,-3.757 -27.216,-8.514 -8.739,-5.384 -18.643,-11.486 -37.708,-11.486 -19.064,0 -28.969,6.103 -37.707,11.486 -7.72,4.757 -13.818,8.514 -27.215,8.514 -13.396,0 -19.494,-3.757 -27.214,-8.514 -8.738,-5.384 -18.642,-11.486 -37.705,-11.486 -19.063,0 -28.967,6.103 -37.705,11.486 -1.468,0.904 -2.878,1.769 -4.291,2.581 -5.873,-10.929 -11.223,-22.178 -16.02,-33.713 z M 764.924,745.986 C 756.186,740.602 746.28,734.5 727.216,734.5 c -19.064,0 -28.969,6.103 -37.707,11.486 -7.721,4.757 -13.819,8.514 -27.218,8.514 -13.397,0 -19.495,-3.757 -27.216,-8.514 -8.737,-5.384 -18.642,-11.486 -37.705,-11.486 -19.064,0 -28.969,6.103 -37.707,11.486 -7.721,4.757 -13.819,8.514 -27.217,8.514 -13.398,0 -19.496,-3.757 -27.217,-8.514 -8.738,-5.384 -18.643,-11.486 -37.708,-11.486 -19.064,0 -28.968,6.103 -37.707,11.486 -7.72,4.757 -13.818,8.514 -27.215,8.514 -13.397,0 -19.496,-3.757 -27.216,-8.514 -8.739,-5.384 -18.643,-11.486 -37.708,-11.486 -19.064,0 -28.969,6.103 -37.707,11.486 -7.72,4.757 -13.818,8.514 -27.215,8.514 -13.396,0 -19.494,-3.757 -27.214,-8.514 -8.738,-5.384 -18.642,-11.486 -37.705,-11.486 -1.614,0 -3.14,0.058 -4.624,0.144 -9.754,-12.311 -18.762,-25.236 -26.95,-38.715 1.686,-0.969 3.297,-1.952 4.86,-2.915 7.72,-4.757 13.817,-8.514 27.213,-8.514 13.396,0 19.494,3.757 27.214,8.514 8.738,5.384 18.642,11.486 37.706,11.486 19.064,0 28.968,-6.103 37.707,-11.486 7.72,-4.757 13.818,-8.514 27.216,-8.514 13.398,0 19.496,3.757 27.216,8.514 8.739,5.384 18.643,11.486 37.708,11.486 19.064,0 28.968,-6.103 37.707,-11.486 7.72,-4.757 13.818,-8.514 27.215,-8.514 13.398,0 19.496,3.757 27.217,8.514 8.738,5.384 18.643,11.486 37.707,11.486 19.064,0 28.969,-6.103 37.707,-11.486 7.721,-4.757 13.819,-8.514 27.217,-8.514 13.396,0 19.494,3.757 27.214,8.514 8.739,5.384 18.644,11.486 37.707,11.486 19.064,0 28.97,-6.103 37.708,-11.486 7.721,-4.757 13.819,-8.514 27.217,-8.514 13.398,0 19.497,3.757 27.218,8.514 8.738,5.384 18.644,11.486 37.708,11.486 13.905,0 22.93,-3.25 30.191,-7.096 -12.24,19.943 -26.274,38.671 -41.879,55.958 -6.4,-1.459 -10.857,-4.188 -16.03,-7.376 z m -543.128,10.389 c 4.987,1.551 8.859,3.932 13.252,6.639 8.738,5.384 18.642,11.486 37.706,11.486 19.064,0 28.968,-6.103 37.707,-11.486 7.72,-4.757 13.818,-8.514 27.216,-8.514 13.398,0 19.496,3.757 27.216,8.514 8.739,5.384 18.643,11.486 37.708,11.486 19.064,0 28.968,-6.103 37.707,-11.486 7.72,-4.757 13.818,-8.514 27.215,-8.514 13.398,0 19.496,3.757 27.217,8.514 8.738,5.384 18.643,11.486 37.707,11.486 19.064,0 28.969,-6.103 37.707,-11.486 7.721,-4.757 13.819,-8.514 27.217,-8.514 13.396,0 19.494,3.757 27.214,8.514 8.739,5.384 18.644,11.486 37.707,11.486 19.064,0 28.97,-6.103 37.708,-11.486 7.721,-4.757 13.819,-8.514 27.217,-8.514 13.398,0 19.497,3.757 27.218,8.514 3.427,2.111 7.042,4.328 11.315,6.246 -14.675,14.484 -30.521,27.784 -47.385,39.737 -13.488,1.546 -21.585,6.51 -28.855,10.989 -7.721,4.757 -13.819,8.514 -27.218,8.514 -13.397,0 -19.495,-3.757 -27.216,-8.514 -8.737,-5.384 -18.642,-11.486 -37.705,-11.486 -19.064,0 -28.969,6.103 -37.707,11.486 -7.721,4.757 -13.819,8.514 -27.217,8.514 -13.398,0 -19.496,-3.757 -27.217,-8.514 -8.738,-5.384 -18.643,-11.486 -37.708,-11.486 -19.064,0 -28.968,6.103 -37.707,11.486 -7.72,4.757 -13.818,8.514 -27.215,8.514 -13.397,0 -19.496,-3.757 -27.216,-8.514 -8.739,-5.384 -18.643,-11.486 -37.708,-11.486 -19.064,0 -28.969,6.103 -37.707,11.486 -0.333,0.206 -0.656,0.401 -0.984,0.603 -28.504,-17.937 -54.458,-39.567 -77.189,-64.214 z m 97.06,75.892 c 4.867,-2.282 10.402,-3.767 18.82,-3.767 13.398,0 19.496,3.757 27.216,8.514 8.739,5.384 18.643,11.486 37.708,11.486 19.064,0 28.968,-6.103 37.707,-11.486 7.72,-4.757 13.818,-8.514 27.215,-8.514 13.398,0 19.496,3.757 27.217,8.514 8.738,5.384 18.643,11.486 37.707,11.486 19.064,0 28.969,-6.103 37.707,-11.486 7.721,-4.757 13.819,-8.514 27.217,-8.514 13.396,0 19.494,3.757 27.214,8.514 6.623,4.08 13.926,8.567 25.368,10.504 C 603.948,867.444 553.241,878.5 500,878.5 434.423,878.5 372.69,861.732 318.856,832.267 Z M 857.339,624.854 h -126.98 c 2.717,-14.35 4.141,-29.051 4.141,-43.976 0,-27.713 -4.799,-54.682 -13.967,-79.984 h 91.427 l 0.76,-9.175 c 0.113,-1.372 0.169,-2.623 0.169,-3.825 0,-25.364 -20.636,-46 -46,-46 -4.445,0 -8.87,0.649 -13.11,1.907 -15.11,-21.11 -39.625,-33.907 -65.89,-33.907 -8.167,0 -16.139,1.207 -23.746,3.534 C 620.046,370.181 561.856,346.379 500,346.379 c -62.637,0 -121.525,24.392 -165.816,68.684 -44.292,44.291 -68.684,103.179 -68.684,165.816 0,14.922 1.408,29.626 4.118,43.976 H 142.662 C 128.958,585.746 121.5,543.729 121.5,500 121.5,291.294 291.294,121.5 500,121.5 c 109.985,0 209.159,47.159 278.377,122.313 -22.786,4.346 -42.784,18.356 -54.63,38.297 -11.233,-8.845 -25.136,-13.73 -39.797,-13.73 -35.565,0 -64.5,28.935 -64.5,64.5 0,5.396 0.673,10.769 1.998,15.97 l 1.92,7.53 h 226.826 c 18.24,44.308 28.306,92.81 28.306,143.62 0,43.729 -7.458,85.746 -21.161,124.854 z"
                   inkscape:connector-curvature="0" /><path
                   id="path18"
                   d="m 430.699,241.5 c -7.708,0 -15.333,1.353 -22.521,3.963 C 396.047,217.91 368.532,199.5 337.699,199.5 c -42.458,0 -77,34.542 -77,77 0,10.765 2.197,21.207 6.531,31.035 l 2.63,5.965 h 227.412 l -0.756,-10.705 C 494.087,268.424 465.177,241.5 430.699,241.5 Z m -147.413,52 c -1.719,-5.481 -2.587,-11.176 -2.587,-17 0,-31.43 25.57,-57 57,-57 25.776,0 48.418,17.374 55.063,42.25 l 3.389,12.688 11.33,-6.643 c 7.025,-4.119 15.054,-6.295 23.218,-6.295 20.306,0 37.84,13.396 43.806,32 z"
                   inkscape:connector-curvature="0" /><path
                   id="path20"
                   d="m 275.779,434.62 c -19.388,-13.535 -43.106,-12.579 -44.486,-12.509 l 0.999,19.975 c 0.33,-0.016 33.235,-1.36 44.339,24.021 l 18.92,-6.191 c -0.321,-1.458 -7.539,-35.84 19.866,-46.498 l -7.249,-18.64 c -20.344,7.912 -29.289,24.118 -32.389,39.842 z"
                   inkscape:connector-curvature="0" /><path
                   id="path22"
                   d="M 368.487,480.182 C 364.348,456.9 346.898,440.804 345.876,439.879 l -13.418,14.831 c 0.246,0.222 24.463,22.537 14.367,48.338 l 17.756,9.001 c 0.805,-1.258 20.013,-30.674 46.926,-18.832 l 8.055,-18.307 c -19.981,-8.789 -37.763,-3.658 -51.075,5.272 z"
                   inkscape:connector-curvature="0" /></g></svg>          </g>
          <defs
             id="SvgjsDefs1010" />
        </svg>
      </g>
      <g
         id="SvgjsG1013">
        <!--This is the "Waikiki Chocolates" text-->
        <svg
           id="svg37"
           y="277.10938"
           x="37.40625"
           height="29.609375"
           preserveAspectRatio="none"
           version="1.1"
           style="overflow:visible;fill:#000000;stroke:none"
           overflow="visible"
           viewBox="1.15 -1.4 325.19 29.619999"
           width="325.1875">
          <path
             id="path34"
             d="M 35.68,0.68 25.45,28.15 19.15,12.46 11.81,28.22 1.15,0.68 H 7.27 L 12.49,16.02 16.52,5.9 14.44,0.68 h 5.18 l 5.94,14.73 4.5,-14.73 z m 15.98,10.59 h 4.68 V 27 H 51.3 v -1.94 0 q -2.27,2.37 -5.26,2.37 v 0 0 q -3.49,0 -5.67,-2.09 v 0 0 Q 38.2,23.26 38.2,19.15 v 0 0 q 0,-2.59 1.06,-4.55 v 0 0 q 1.06,-1.96 2.82,-3.04 v 0 0 q 1.77,-1.08 3.78,-1.08 v 0 0 q 2.09,0 3.32,0.63 v 0 0 q 1.22,0.63 2.16,1.78 v 0 z m -4.18,12.06 v 0 q 2.63,0 3.82,-2.38 v 0 -3.85 0 q -0.43,-1.15 -1.49,-1.84 v 0 0 Q 48.74,14.58 47.3,14.58 v 0 0 q -1.65,0 -2.82,1.22 v 0 0 q -1.17,1.23 -1.17,3.1 v 0 0 q 0,1.22 0.57,2.25 v 0 0 q 0.58,1.03 1.53,1.6 v 0 0 q 0.96,0.58 2.07,0.58 z M 61.52,11.27 h 5.04 V 27 h -5.04 z m -0.1,-5.58 v 0 q 0,-1.08 0.84,-1.82 v 0 0 q 0.85,-0.74 1.93,-0.74 v 0 0 q 1.04,0 1.87,0.74 v 0 0 q 0.83,0.74 0.83,1.82 v 0 0 q 0,1.08 -0.83,1.8 v 0 0 q -0.83,0.72 -1.87,0.72 v 0 0 q -1.08,0 -1.93,-0.72 v 0 0 Q 61.42,6.77 61.42,5.69 Z M 82.04,27 78.19,20.45 76.79,21.49 V 27 H 71.75 V -1.4 h 5.04 v 17.78 l 7.49,-5.51 3.06,2.7 -5.58,4.21 6.15,9.22 z M 91.4,11.27 h 5.04 V 27 H 91.4 Z M 91.3,5.69 v 0 q 0,-1.08 0.84,-1.82 v 0 0 q 0.85,-0.74 1.93,-0.74 v 0 0 q 1.04,0 1.87,0.74 v 0 0 q 0.83,0.74 0.83,1.82 v 0 0 q 0,1.08 -0.83,1.8 v 0 0 q -0.83,0.72 -1.87,0.72 v 0 0 q -1.08,0 -1.93,-0.72 v 0 0 Q 91.3,6.77 91.3,5.69 Z m 20.62,21.31 -3.85,-6.55 -1.4,1.04 V 27 h -5.04 V -1.4 h 5.04 v 17.78 l 7.49,-5.51 3.06,2.7 -5.58,4.21 6.15,9.22 z m 9.36,-15.73 h 5.04 V 27 h -5.04 z m -0.1,-5.58 v 0 q 0,-1.08 0.84,-1.82 v 0 0 q 0.85,-0.74 1.93,-0.74 v 0 0 q 1.04,0 1.87,0.74 v 0 0 q 0.83,0.74 0.83,1.82 v 0 0 q 0,1.08 -0.83,1.8 v 0 0 q -0.83,0.72 -1.87,0.72 v 0 0 q -1.08,0 -1.93,-0.72 v 0 0 q -0.84,-0.72 -0.84,-1.8 z m 42.73,19.11 v 0 q -1.01,0.83 -3.21,1.66 v 0 0 q -2.19,0.83 -4.78,0.83 v 0 0 q -4.14,0 -7.2,-1.8 v 0 0 q -3.06,-1.8 -4.68,-4.84 v 0 0 q -1.62,-3.05 -1.62,-6.68 v 0 0 q 0,-4 1.62,-7.13 v 0 0 q 1.62,-3.13 4.53,-4.88 v 0 0 q 2.92,-1.74 6.73,-1.74 v 0 0 q 2.42,0 4.47,0.64 v 0 0 q 2.05,0.65 3.6,1.62 v 0 l -2.05,4.94 v 0 q -2.85,-2.16 -5.84,-2.16 v 0 0 q -2.01,0 -3.78,1.11 v 0 0 q -1.76,1.12 -2.8,3.04 v 0 0 q -1.05,1.93 -1.05,4.27 v 0 0 q 0,2.56 0.97,4.48 v 0 0 q 0.98,1.93 2.78,3.01 v 0 0 q 1.8,1.08 4.21,1.08 v 0 0 q 1.94,0 3.49,-0.63 v 0 0 q 1.55,-0.63 2.45,-1.5 v 0 z m 15.33,-14.29 v 0 q 2.24,0 3.73,1.33 v 0 0 q 1.49,1.34 1.53,3.39 v 0 V 27 h -5.04 v -9.9 0 q -0.11,-2.3 -2.3,-2.3 v 0 0 q -1.73,0 -2.78,1.62 v 0 0 q -1.04,1.62 -1.04,4.17 v 0 V 27 H 168.3 V -1.4 h 4.93 v 15.15 0 q 0.87,-1.51 2.4,-2.37 v 0 0 q 1.53,-0.87 3.61,-0.87 z m 9.22,8.43 v 0 q 0,-2.42 1.13,-4.32 v 0 0 q 1.14,-1.91 3.21,-3.01 v 0 0 q 2.07,-1.1 4.7,-1.1 v 0 0 q 2.62,0 4.62,1.1 v 0 0 q 2,1.1 3.08,3.01 v 0 0 q 1.08,1.9 1.08,4.32 v 0 0 q 0,2.41 -1.08,4.35 v 0 0 q -1.08,1.95 -3.08,3.04 v 0 0 q -2,1.1 -4.7,1.1 v 0 0 q -2.62,0 -4.66,-1.02 v 0 0 q -2.03,-1.03 -3.17,-2.94 v 0 0 q -1.13,-1.91 -1.13,-4.53 z m 5.08,0.03 v 0 q 0,1.87 1.08,3.12 v 0 0 q 1.08,1.24 2.73,1.24 v 0 0 q 1.73,0 2.79,-1.23 v 0 0 q 1.06,-1.22 1.06,-3.13 v 0 0 q 0,-1.91 -1.06,-3.13 v 0 0 q -1.06,-1.22 -2.79,-1.22 v 0 0 q -1.65,0 -2.73,1.24 v 0 0 q -1.08,1.24 -1.08,3.11 z m 30.06,6.63 v 0 q -1.05,0.82 -2.61,1.33 v 0 0 q -1.57,0.5 -3.08,0.5 v 0 0 q -4.11,0 -6.5,-2.21 v 0 0 q -2.39,-2.22 -2.39,-6.1 v 0 0 q 0,-2.52 1.17,-4.41 v 0 0 q 1.17,-1.89 3.07,-2.88 v 0 0 q 1.91,-0.99 4.11,-0.99 v 0 0 q 3.92,0 6.37,2.08 v 0 l -2.45,3.24 v 0 q -1.55,-1.22 -3.45,-1.22 v 0 0 q -1.59,0 -2.69,1.19 v 0 0 q -1.09,1.19 -1.09,2.99 v 0 0 q 0,1.8 1.18,3 v 0 0 q 1.19,1.21 3.1,1.21 v 0 0 q 1.66,0 2.74,-0.9 v 0 z m 2.66,-6.66 v 0 q 0,-2.42 1.13,-4.32 v 0 0 q 1.14,-1.91 3.21,-3.01 v 0 0 q 2.07,-1.1 4.7,-1.1 v 0 0 q 2.62,0 4.62,1.1 v 0 0 q 2,1.1 3.08,3.01 v 0 0 q 1.08,1.9 1.08,4.32 v 0 0 q 0,2.41 -1.08,4.35 v 0 0 q -1.08,1.95 -3.08,3.04 v 0 0 q -2,1.1 -4.7,1.1 v 0 0 q -2.62,0 -4.66,-1.02 v 0 0 q -2.03,-1.03 -3.17,-2.94 v 0 0 q -1.13,-1.91 -1.13,-4.53 z m 5.08,0.03 v 0 q 0,1.87 1.08,3.12 v 0 0 q 1.08,1.24 2.73,1.24 v 0 0 q 1.73,0 2.79,-1.23 v 0 0 Q 239,20.88 239,18.97 v 0 0 q 0,-1.91 -1.06,-3.13 v 0 0 q -1.06,-1.22 -2.79,-1.22 v 0 0 q -1.65,0 -2.73,1.24 v 0 0 q -1.08,1.24 -1.08,3.11 z m 16.7,-20.37 h 5.04 V 27 h -5.04 z m 22.46,12.67 h 4.68 V 27 h -5.04 v -1.94 0 q -2.26,2.37 -5.25,2.37 v 0 0 q -3.49,0 -5.67,-2.09 v 0 0 q -2.18,-2.08 -2.18,-6.19 v 0 0 q 0,-2.59 1.06,-4.55 v 0 0 q 1.06,-1.96 2.83,-3.04 v 0 0 q 1.76,-1.08 3.78,-1.08 v 0 0 q 2.09,0 3.31,0.63 v 0 0 q 1.22,0.63 2.16,1.78 v 0 z m -4.17,12.06 v 0 q 2.63,0 3.81,-2.38 v 0 -3.85 0 q -0.43,-1.15 -1.49,-1.84 v 0 0 q -1.06,-0.68 -2.5,-0.68 v 0 0 q -1.66,0 -2.83,1.22 v 0 0 q -1.17,1.23 -1.17,3.1 v 0 0 q 0,1.22 0.58,2.25 v 0 0 q 0.57,1.03 1.53,1.6 v 0 0 q 0.95,0.58 2.07,0.58 z M 281.84,4.36 h 5.04 v 6.84 h 3.82 v 3.92 h -3.82 V 27 h -5.04 V 15.12 H 279.4 V 11.2 h 2.44 z m 20.56,18.79 v 0 q 1.51,0 3.13,-1.05 v 0 l 2.23,3.75 v 0 q -1.29,0.72 -2.73,1.15 v 0 0 q -1.44,0.43 -2.74,0.43 v 0 0 q -2.81,0 -4.84,-1.06 v 0 0 q -2.03,-1.06 -3.08,-2.99 v 0 0 q -1.04,-1.92 -1.04,-4.41 v 0 0 q 0,-2.3 1.2,-4.25 v 0 0 q 1.21,-1.94 3.3,-3.07 v 0 0 q 2.09,-1.14 4.57,-1.14 v 0 0 q 3.38,0 5.56,1.98 v 0 0 q 2.18,1.98 2.83,5.65 v 0 l -11.52,3.68 v 0 q 1.15,1.33 3.13,1.33 z M 302,14.44 v 0 q -1.69,0 -2.7,1.15 v 0 0 q -1,1.15 -1,3.09 v 0 0.33 l 6.91,-2.34 v 0 Q 304.45,14.44 302,14.44 Z m 17.57,12.88 v 0 q -1.94,0 -3.63,-0.68 v 0 0 q -1.7,-0.68 -2.81,-1.91 v 0 l 2.09,-2.77 v 0 q 2.08,1.94 3.92,1.94 v 0 0 q 0.97,0 1.57,-0.3 v 0 0 q 0.59,-0.31 0.59,-0.92 v 0 0 q 0,-0.72 -0.68,-1.1 v 0 0 q -0.69,-0.38 -1.53,-0.63 v 0 0 q -0.85,-0.25 -1.14,-0.32 v 0 0 q -2.05,-0.65 -3.06,-1.93 v 0 0 q -1.01,-1.28 -1.01,-2.93 v 0 0 q 0,-1.26 0.67,-2.47 v 0 0 q 0.67,-1.2 2.07,-1.98 v 0 0 q 1.4,-0.77 3.49,-0.77 v 0 0 q 1.95,0 3.31,0.39 v 0 0 q 1.37,0.4 2.63,1.3 v 0 l -1.91,2.95 v 0 q -0.72,-0.57 -1.6,-0.95 v 0 0 q -0.88,-0.38 -1.6,-0.38 v 0 0 q -0.86,0 -1.4,0.36 v 0 0 Q 319,14.58 319,15.08 v 0 0 q -0.04,0.76 0.63,1.14 v 0 0 q 0.66,0.38 2.07,0.77 v 0 0 q 0.21,0.07 0.45,0.15 v 0 0 q 0.23,0.07 0.48,0.14 v 0 0 q 3.71,1.22 3.71,4.46 v 0 0 q 0,1.52 -0.76,2.78 v 0 0 q -0.75,1.26 -2.28,2.03 v 0 0 q -1.53,0.77 -3.73,0.77 z"
             inkscape:connector-curvature="0"
             style="fill:#88c24e;stroke:none" />
          <defs
             id="SvgjsDefs1012" />
        </svg>
      </g>
      <g
         id="SvgjsG1015">
        <svg
           id="svg43"
           y="321.71875"
           x="139.3125"
           height="21.1875"
           preserveAspectRatio="none"
           version="1.1"
           style="overflow:visible;fill:#000000;stroke:none"
           overflow="visible"
           viewBox="1.98 3.9100001 121.37 21.190001"
           width="121.35938">
          <path
             id="path40"
             d="M 7.21,20.41 H 1.98 V 4.77 H 6.6 v 0 q 2.51,0 3.81,1.04 v 0 0 q 1.3,1.03 1.3,3.05 v 0 0 q 0,1.22 -0.66,2.11 v 0 0 q -0.66,0.9 -1.81,1.29 v 0 0 q 1.36,0.3 2.2,1.34 v 0 0 q 0.83,1.04 0.83,2.41 v 0 0 q 0,2.07 -1.34,3.23 v 0 0 Q 9.59,20.41 7.21,20.41 Z M 7.37,12.89 H 3.3 v 6.4 h 3.96 v 0 q 1.7,0 2.69,-0.86 v 0 0 q 1,-0.87 1,-2.4 v 0 0 q 0,-1.45 -0.95,-2.3 v 0 0 Q 9.04,12.89 7.37,12.89 Z M 3.3,5.9 v 5.88 h 3.61 v 0 q 1.65,-0.03 2.56,-0.77 v 0 0 q 0.91,-0.75 0.91,-2.18 v 0 0 q 0,-1.5 -0.94,-2.22 v 0 0 Q 8.5,5.9 6.6,5.9 v 0 z m 12.93,2.89 3.61,9.77 3.4,-9.77 h 1.38 l -4.96,13.6 -0.26,0.6 v 0 q -0.95,2.11 -2.95,2.11 v 0 0 q -0.46,0 -0.99,-0.15 v 0 l -0.01,-1.06 0.66,0.07 v 0 q 0.95,0 1.54,-0.47 v 0 0 q 0.58,-0.47 0.99,-1.61 v 0 L 19.21,20.31 14.83,8.79 Z M 35.59,4.77 v 14.52 h 7.73 v 1.12 H 34.26 V 4.77 Z m 17.99,15.64 -0.03,-1.47 v 0 q -1.16,1.69 -3.7,1.69 v 0 0 q -1.86,0 -2.83,-1.08 v 0 0 q -0.96,-1.08 -0.99,-3.2 v 0 -7.56 h 1.28 v 7.4 0 q 0,3.32 2.69,3.32 v 0 0 q 2.79,0 3.53,-2.31 v 0 -8.41 h 1.29 v 11.62 z m 6.29,-14.6 h 1.29 v 2.98 h 2.41 v 1.05 h -2.41 v 7.74 0 q 0,0.97 0.35,1.44 v 0 0 q 0.35,0.48 1.16,0.48 v 0 0 q 0.33,0 1.05,-0.11 v 0 l 0.05,1.05 v 0 q -0.5,0.19 -1.37,0.19 v 0 0 q -1.33,0 -1.93,-0.77 v 0 0 q -0.6,-0.77 -0.6,-2.26 v 0 -7.76 H 57.73 V 8.79 h 2.14 z m 6.84,8.85 v -0.17 0 q 0,-2.73 1.21,-4.32 v 0 0 q 1.21,-1.6 3.29,-1.6 v 0 0 q 2.37,0 3.6,1.89 v 0 l 0.07,-1.67 h 1.2 v 11.38 0 q 0,2.25 -1.25,3.56 v 0 0 q -1.26,1.31 -3.41,1.31 v 0 0 q -1.21,0 -2.32,-0.54 v 0 0 Q 68,23.96 67.37,23.05 v 0 l 0.72,-0.77 v 0 q 1.36,1.68 3.24,1.68 v 0 0 q 1.62,0 2.52,-0.96 v 0 0 q 0.9,-0.95 0.93,-2.63 v 0 -1.46 0 q -1.23,1.72 -3.6,1.72 v 0 0 q -2.02,0 -3.24,-1.62 v 0 0 Q 66.71,17.4 66.71,14.66 Z m 1.3,0.06 v 0 0 q 0,2.22 0.9,3.5 v 0 0 q 0.89,1.29 2.51,1.29 v 0 0 q 2.37,0 3.36,-2.13 v 0 -5.4 0 q -0.45,-1.12 -1.3,-1.71 v 0 0 Q 72.63,9.69 71.44,9.69 v 0 0 q -1.62,0 -2.52,1.27 v 0 0 q -0.91,1.28 -0.91,3.76 z m 21.14,5.69 h -1.38 v 0 q -0.19,-0.55 -0.25,-1.62 v 0 0 q -0.67,0.88 -1.72,1.36 v 0 0 q -1.05,0.48 -2.22,0.48 v 0 0 q -1.67,0 -2.71,-0.94 v 0 0 q -1.04,-0.93 -1.04,-2.36 v 0 0 q 0,-1.7 1.41,-2.69 v 0 0 q 1.42,-0.99 3.94,-0.99 v 0 h 2.33 v -1.32 0 q 0,-1.24 -0.77,-1.96 v 0 0 Q 85.98,9.66 84.5,9.66 v 0 0 q -1.34,0 -2.22,0.68 v 0 0 Q 81.4,11.03 81.4,12 v 0 l -1.29,-0.01 v 0 q 0,-1.39 1.29,-2.4 v 0 0 q 1.29,-1.02 3.17,-1.02 v 0 0 q 1.94,0 3.07,0.97 v 0 0 q 1.12,0.98 1.15,2.72 v 0 5.5 0 q 0,1.68 0.36,2.52 v 0 z m -5.42,-0.92 v 0 0 q 1.29,0 2.31,-0.63 v 0 0 q 1.01,-0.62 1.47,-1.66 v 0 -2.56 h -2.3 v 0 q -1.92,0.02 -3,0.71 v 0 0 q -1.09,0.68 -1.09,1.87 v 0 0 q 0,0.98 0.73,1.62 v 0 0 q 0.72,0.65 1.88,0.65 z M 98.62,8.71 98.59,9.88 v 0 Q 98.18,9.81 97.72,9.81 v 0 0 q -1.2,0 -2.04,0.67 v 0 0 q -0.83,0.67 -1.18,1.95 v 0 7.98 H 93.22 V 8.79 h 1.25 l 0.03,1.84 v 0 q 1.02,-2.06 3.27,-2.06 v 0 0 q 0.54,0 0.85,0.14 z m 2.28,5.93 v -0.15 0 q 0,-2.71 1.21,-4.31 v 0 0 q 1.21,-1.61 3.28,-1.61 v 0 0 q 2.35,0 3.59,1.86 v 0 -6.52 h 1.28 v 16.5 h -1.21 L 109,18.86 v 0 q -1.24,1.77 -3.63,1.77 v 0 0 q -2.01,0 -3.24,-1.62 v 0 0 q -1.23,-1.62 -1.23,-4.37 z m 1.3,0.08 v 0 0 q 0,2.22 0.89,3.5 v 0 0 q 0.89,1.29 2.51,1.29 v 0 0 q 2.38,0 3.38,-2.1 v 0 -5.45 0 q -1,-2.27 -3.35,-2.27 v 0 0 q -1.63,0 -2.53,1.27 v 0 0 q -0.9,1.28 -0.9,3.76 z m 21.15,5.69 h -1.37 v 0 q -0.2,-0.55 -0.25,-1.62 v 0 0 q -0.68,0.88 -1.72,1.36 v 0 0 q -1.05,0.48 -2.22,0.48 v 0 0 q -1.68,0 -2.72,-0.94 v 0 0 q -1.03,-0.93 -1.03,-2.36 v 0 0 q 0,-1.7 1.41,-2.69 v 0 0 q 1.41,-0.99 3.94,-0.99 v 0 h 2.33 v -1.32 0 q 0,-1.24 -0.77,-1.96 v 0 0 q -0.77,-0.71 -2.24,-0.71 v 0 0 q -1.34,0 -2.22,0.68 v 0 0 q -0.88,0.69 -0.88,1.66 v 0 l -1.29,-0.01 v 0 q 0,-1.39 1.29,-2.4 v 0 0 q 1.29,-1.02 3.17,-1.02 v 0 0 q 1.94,0 3.06,0.97 v 0 0 q 1.12,0.98 1.16,2.72 v 0 5.5 0 q 0,1.68 0.35,2.52 v 0 z m -5.41,-0.92 v 0 0 q 1.29,0 2.3,-0.63 v 0 0 q 1.02,-0.62 1.48,-1.66 v 0 -2.56 h -2.3 v 0 q -1.92,0.02 -3.01,0.71 v 0 0 q -1.08,0.68 -1.08,1.87 v 0 0 q 0,0.98 0.72,1.62 v 0 0 q 0.73,0.65 1.89,0.65 z"
             inkscape:connector-curvature="0"
             style="fill:#88c24e;stroke:none" />
          <defs
             id="SvgjsDefs1014" />
        </svg>
      </g>
    </g>
  </g>
</svg>
